<svg xmlns="http://www.w3.org/2000/svg" xmlns:xlink="http://www.w3.org/1999/xlink" xmlns:lucid="lucid" width="1293.23" height="1280"><g transform="translate(-80 -280)" lucid:page-tab-id=".Q4MUjXso07N"><path d="M0 0h1436.52v1760H0z" fill="#fff"/><path d="M280 305c0-2.76 2.24-5 5-5h827.22c2.76 0 5 2.24 5 5v1230c0 2.76-2.24 5-5 5H285c-2.76 0-5-2.24-5-5z" stroke="#333" fill-opacity="0"/><use xlink:href="#a" transform="matrix(1,0,0,1,288,308) translate(371.5246913580247 15.11111111111111)"/><path d="M160.3 418.38c0 7.4-6 13.38-13.4 13.38-7.38 0-13.37-6-13.37-13.38 0-7.4 6-13.38 13.38-13.38 7.4 0 13.4 6 13.4 13.38z" stroke="#333" fill="#fff"/><path d="M146.9 431.76v39.04c0 2.76 1.12 6.95 2.48 9.35l24.3 42.85m-26.77-47.2L120.16 523m0-77.85h53.53" stroke="#333" fill="none"/><path d="M120.15 410c0-2.76 2.24-5 5-5h43.53c2.76 0 5 2.24 5 5v130c0 2.76-2.24 5-5 5h-43.53c-2.76 0-5-2.24-5-5z" fill="none"/><path d="M147.9 436.8L409 390.1M147.92 436.78l-3.46.62" stroke="#333" fill="none"/><path d="M409.5 390l.02.5-.44.08-.17-.98.62-.1z" stroke="#333" stroke-width=".05" fill="#333"/><path d="M147.9 440.16L519 482.44M147.92 440.16l-3.5-.4" stroke="#333" fill="none"/><path d="M519.52 482l-.02.5v.5l-.57-.06.12-1z" stroke="#333" stroke-width=".05" fill="#333"/><path d="M1252.9 736.78L526.6 401.62M1252.88 736.77l3.2 1.47" stroke="#333" fill="none"/><path d="M526.82 401.17l-.42.9-.6-.26.45-.5.2-.3z" stroke="#333" stroke-width=".05" fill="#333"/><path d="M633.34 407.28l-4.87-.8m-4.88-.83l-9.75-1.64m-4.88-.8l-9.74-1.65m-4.88-.82l-9.75-1.64m-4.87-.83l-9.75-1.63m-4.87-.82l-9.74-1.64m-4.87-.82l-9.76-1.64m-4.87-.82l-4.88-.82" stroke="#333" fill="none"/><path d="M647.9 409.73l-14.83 2.2 1.53-9.13z" stroke="#333" fill="#333"/><path d="M531.1 389.6l-.18.98-.44-.08.02-.5-.02-.5z" stroke="#333" stroke-width=".05" fill="#333"/><use xlink:href="#b" transform="matrix(1,0,0,1,554.7197345089668,370.48106953325345) translate(0 14.222222222222223)"/><path d="M183.84 1034.18c0 7.4-6 13.38-13.38 13.38-7.4 0-13.38-6-13.38-13.38 0-7.4 6-13.38 13.38-13.38 7.4 0 13.38 6 13.38 13.38z" stroke="#333" fill="#fff"/><path d="M170.46 1047.56v39.04c0 2.76 1.1 6.94 2.46 9.35l24.3 42.85m-26.76-47.2l-26.77 47.2m0-77.86h53.52" stroke="#333" fill="none"/><path d="M143.7 1025.8c0-2.77 2.23-5 5-5h43.52c2.76 0 5 2.23 5 5v130c0 2.76-2.24 5-5 5H148.7c-2.77 0-5-2.24-5-5z" fill="none"/><path d="M1280.15 733.38c0 7.4-6 13.4-13.38 13.4-7.4 0-13.4-6-13.4-13.4s6-13.38 13.4-13.38 13.38 6 13.38 13.38z" stroke="#333" fill="#fff"/><path d="M1266.77 746.77v39.03c0 2.76 1.1 6.95 2.46 9.35l24.3 42.85m-26.76-47.2L1240 838m0-77.85h53.53" stroke="#333" fill="none"/><path d="M1240 725c0-2.76 2.24-5 5-5h43.53c2.76 0 5 2.24 5 5v130c0 2.76-2.24 5-5 5H1245c-2.76 0-5-2.24-5-5z" fill="none"/><path d="M100 528c0-4.42 3.58-8 8-8h77.23c4.42 0 8 3.58 8 8v14c0 4.42-3.58 8-8 8H108c-4.42 0-8-3.58-8-8z" stroke="#000" stroke-opacity="0" fill="#fff" fill-opacity="0"/><use xlink:href="#c" transform="matrix(1,0,0,1,120,520) translate(1.5499999999999972 19.1)"/><path d="M120.15 1149.25c0-4.42 3.58-8 8-8h77.23c4.42 0 8 3.58 8 8v14c0 4.42-3.58 8-8 8h-77.23c-4.42 0-8-3.58-8-8z" stroke="#000" stroke-opacity="0" fill="#fff" fill-opacity="0"/><use xlink:href="#d" transform="matrix(1,0,0,1,140.14783774913803,1141.2489633254834) translate(-4.950000000000003 19.1)"/><path d="M1260 868c0-4.42 3.58-8 8-8h77.23c4.42 0 8 3.58 8 8v14c0 4.42-3.58 8-8 8H1268c-4.42 0-8-3.58-8-8z" stroke="#000" stroke-opacity="0" fill="#fff" fill-opacity="0"/><use xlink:href="#e" transform="matrix(1,0,0,1,1280,860) translate(-4 19.1)"/><path d="M530 390c0 16.57-26.86 30-60 30s-60-13.43-60-30 26.86-30 60-30 60 13.43 60 30z" stroke="#333" fill="#fff"/><use xlink:href="#f" transform="matrix(1,0,0,1,428,372) translate(20.025 21.6)"/><path d="M770 410c0 16.57-26.86 30-60 30s-60-13.43-60-30 26.86-30 60-30 60 13.43 60 30z" stroke="#333" fill="#fff"/><use xlink:href="#g" transform="matrix(1,0,0,1,668,392) translate(10.225000000000001 21.6)"/><path d="M1000 410c0 16.57-26.86 30-60 30s-60-13.43-60-30 26.86-30 60-30 60 13.43 60 30z" stroke="#333" fill="#fff"/><use xlink:href="#h" transform="matrix(1,0,0,1,898,392) translate(15.049999999999997 14.4)"/><use xlink:href="#i" transform="matrix(1,0,0,1,898,392) translate(10.024999999999999 36)"/><path d="M771 410h92.12" stroke="#333" fill="none"/><path d="M771 410.5h-.52l.02-.5-.02-.5h.53z" stroke="#333" stroke-width=".05" fill="#333"/><path d="M877.88 410l-14.26 4.64v-9.28z" stroke="#333" fill="#333"/><path d="M650 482.5c0 17.95-29.1 32.5-65 32.5s-65-14.55-65-32.5 29.1-32.5 65-32.5 65 14.55 65 32.5z" stroke="#333" fill="#fff"/><use xlink:href="#j" transform="matrix(1,0,0,1,539.5,462.9986523231284) translate(12.074999999999996 14.4)"/><use xlink:href="#k" transform="matrix(1,0,0,1,539.5,462.9986523231284) translate(6.099999999999994 36)"/><use xlink:href="#l" transform="matrix(1,0,0,1,539.5,462.9986523231284) translate(47 36)"/><path d="M170.64 1019.83l217.75-547.4c-2.57-1.03-3.82-3.94-2.8-6.5 1.02-2.57 3.92-3.83 6.5-2.8l23.5-59.1" stroke="#333" fill="none"/><path d="M171.1 1020l-.13.36-.5-.07-.58.07.28-.74zM416.17 403.94l-.1.27-.94-.36.27-.68z" stroke="#333" stroke-width=".05" fill="#333"/><path d="M780 578.75c0 25.54-35.82 46.25-80 46.25s-80-20.7-80-46.25c0-25.54 35.82-46.25 80-46.25s80 20.7 80 46.25z" stroke="#333" fill="#fff"/><use xlink:href="#m" transform="matrix(1,0,0,1,644,550.9982376533218) translate(23.525 14.4)"/><use xlink:href="#n" transform="matrix(1,0,0,1,644,550.9982376533218) translate(3 36)"/><use xlink:href="#o" transform="matrix(1,0,0,1,644,550.9982376533218) translate(79 36)"/><use xlink:href="#p" transform="matrix(1,0,0,1,644,550.9982376533218) translate(19.549999999999997 57.6)"/><path d="M750 1077.9c0 17.95-29.1 32.5-65 32.5s-65-14.55-65-32.5 29.1-32.5 65-32.5 65 14.55 65 32.5z" stroke="#333" fill="#fff"/><use xlink:href="#q" transform="matrix(1,0,0,1,639.5,1058.3977429606325) translate(0 23.1)"/><path d="M798.26 712.5c0 17.95-35.82 32.5-80 32.5s-80-14.55-80-32.5 35.82-32.5 80-32.5 80 14.55 80 32.5z" stroke="#333" fill="#fff"/><use xlink:href="#r" transform="matrix(1,0,0,1,662.261449803341,692.999688997645) translate(-8.974999999999994 23.1)"/><path d="M790 832.5c0 17.95-29.1 32.5-65 32.5s-65-14.55-65-32.5 29.1-32.5 65-32.5 65 14.55 65 32.5z" stroke="#333" fill="#fff"/><use xlink:href="#s" transform="matrix(1,0,0,1,679.5,812.999688997645) translate(6.424999999999997 23.1)"/><path d="M770 955.2c0 17.95-29.1 32.5-65 32.5s-65-14.55-65-32.5 29.1-32.5 65-32.5 65 14.55 65 32.5z" stroke="#333" fill="#fff"/><use xlink:href="#t" transform="matrix(1,0,0,1,659.5,935.6987159791387) translate(22.525 14.4)"/><use xlink:href="#u" transform="matrix(1,0,0,1,659.5,935.6987159791387) translate(14.049999999999997 36)"/><path d="M750 1179.9c0 17.94-29.1 32.5-65 32.5s-65-14.56-65-32.5c0-17.96 29.1-32.5 65-32.5s65 14.54 65 32.5z" stroke="#333" fill="#fff"/><use xlink:href="#v" transform="matrix(1,0,0,1,639.5,1160.3926778108935) translate(-5.950000000000003 23.1)"/><path d="M763.6 1281.9c0 17.94-29.1 32.5-65 32.5s-65-14.56-65-32.5c0-17.96 29.1-32.5 65-32.5s65 14.54 65 32.5z" stroke="#333" fill="#fff"/><use xlink:href="#w" transform="matrix(1,0,0,1,653.1114297814335,1262.3876126611544) translate(15.524999999999999 14.4)"/><use xlink:href="#x" transform="matrix(1,0,0,1,653.1114297814335,1262.3876126611544) translate(22.025 36)"/><path d="M147.9 447.82l223.2 54.7c.64-2.67 3.35-4.32 6.03-3.66 2.68.66 4.33 3.37 3.67 6.05l242.1 59.36M147.9 447.82l-3.4-.84" stroke="#333" fill="none"/><path d="M623.64 563.92l-.38.64-.13.27-.37-.1.23-.96z" stroke="#333" stroke-width=".05" fill="#333"/><path d="M798.26 1452.5c0 17.95-29.1 32.5-65 32.5s-65-14.55-65-32.5 29.1-32.5 65-32.5 65 14.55 65 32.5z" stroke="#333" fill="#fff"/><use xlink:href="#y" transform="matrix(1,0,0,1,687.761449803341,1432.999688997645) translate(13.5 23.1)"/><use xlink:href="#z" transform="matrix(1,0,0,1,687.761449803341,1432.999688997645) translate(48.5 23.1)"/><path d="M903.12 1452.5h-4.95m-4.94 0h-9.9m-4.94 0h-9.9m-4.95 0h-9.9m-4.93 0h-9.9m-4.94 0h-9.9m-4.94 0h-9.9m-4.93 0h-4.94" stroke="#333" fill="none"/><path d="M917.88 1452.5l-14.26 4.63v-9.27z" stroke="#333" fill="#333"/><path d="M799.27 1453h-.53l.02-.5v-.5h.5z" stroke="#333" stroke-width=".05" fill="#333"/><use xlink:href="#b" transform="matrix(1,0,0,1,805.8467742924923,1422.5306342451547) translate(0 14.222222222222223)"/><path d="M1050 1452.5c0 17.95-29.1 32.5-65 32.5s-65-14.55-65-32.5 29.1-32.5 65-32.5 65 14.55 65 32.5z" stroke="#333" fill="#fff"/><use xlink:href="#A" transform="matrix(1,0,0,1,939.5,1432.999688997645) translate(14.549999999999997 14.4)"/><use xlink:href="#i" transform="matrix(1,0,0,1,939.5,1432.999688997645) translate(13.524999999999999 36)"/><path d="M1117.22 1260c0 22.1-31.34 40-70 40s-70-17.9-70-40 31.34-40 70-40 70 17.9 70 40z" stroke="#333" fill="#fff"/><use xlink:href="#B" transform="matrix(1,0,0,1,998.2228595628669,1236) translate(3.049999999999997 17.299999999999997)"/><use xlink:href="#o" transform="matrix(1,0,0,1,998.2228595628669,1236) translate(64.95 17.299999999999997)"/><use xlink:href="#C" transform="matrix(1,0,0,1,998.2228595628669,1236) translate(4.574999999999996 38.9)"/><path d="M976.24 1259.86l-4.8-1.38m-4.78-1.38l-9.57-2.76m-4.8-1.4l-9.58-2.75m-4.8-1.4l-9.57-2.75m-4.8-1.38l-9.56-2.77m-4.8-1.38l-9.58-2.76m-4.8-1.38l-9.57-2.76m-4.8-1.4l-9.57-2.75m-4.78-1.38l-9.58-2.77m-4.8-1.38l-9.57-2.77m-4.8-1.38l-9.57-2.76m-4.8-1.38l-9.56-2.76m-4.8-1.4l-9.57-2.75m-4.8-1.38l-9.57-2.76m-4.8-1.37l-9.56-2.77m-4.8-1.38l-4.78-1.38" stroke="#333" fill="none"/><path d="M976.74 1259.48l-.02.52.02.53-.65-.2.27-.95z" stroke="#333" stroke-width=".05" fill="#333"/><path d="M746.55 1193.6l15-.5-2.58 8.92z" stroke="#333" fill="#333"/><use xlink:href="#D" transform="matrix(1,0,0,1,763.3942159969541,1225.4097167349166) translate(0 14.222222222222223)"/><path d="M1266.77 759.6l-467.5-47.05M1266.75 759.6l3.5.35" stroke="#333" fill="none"/><path d="M799.32 712.05l-.1 1-.47-.05v-1z" stroke="#333" stroke-width=".05" fill="#333"/><path d="M147.86 454.64l201.5 102.46c1.24-2.46 4.25-3.44 6.7-2.2 2.47 1.27 3.45 4.28 2.2 6.74l281.2 143M147.87 454.65l-3.13-1.6" stroke="#333" fill="none"/><path d="M640.17 704.43l-.45.76-.05.1-.44-.22.45-.9z" stroke="#333" stroke-width=".05" fill="#333"/><path d="M146.82 458.46l189.04 132.86c1.6-2.26 4.7-2.8 6.97-1.22 2.26 1.6 2.8 4.7 1.2 6.97l318.82 224.07M146.83 458.46l-2.87-2.02" stroke="#333" fill="none"/><path d="M663.56 821.03l-.27.35-.32.47-.43-.3.58-.83z" stroke="#333" stroke-width=".05" fill="#333"/><path d="M147.77 464.52L320.1 631.57c1.93-1.98 5.1-2.03 7.08-.1 1.98 1.9 2.03 5.08.1 7.06L642.64 944.2M147.78 464.53l-2.52-2.45" stroke="#333" fill="none"/><path d="M643.27 944.1l-.56.86-.43-.42.7-.72z" stroke="#333" stroke-width=".05" fill="#333"/><path d="M171.36 1061.15l334-243.14c-1.6-2.23-1.12-5.35 1.1-6.98 2.25-1.62 5.37-1.13 7 1.1l63.04-45.9c-1.63-2.22-1.14-5.35 1.1-6.97 2.23-1.63 5.36-1.14 6.98 1.1l54.9-39.96M171.37 1061.14l-2.84 2.07" stroke="#333" fill="none"/><path d="M639.8 719.95l.34.57-.38.28-.6-.8.48-.35z" stroke="#333" stroke-width=".05" fill="#333"/><path d="M171.4 1069.88l403.85-184.52c-1.15-2.5-.04-5.47 2.47-6.62 2.5-1.15 5.48-.04 6.63 2.47l79.35-36.25M171.42 1069.88l-3.2 1.46" stroke="#333" fill="none"/><path d="M664.48 845.14l-.6.27-.4-.9.34-.16z" stroke="#333" stroke-width=".05" fill="#333"/><path d="M170.45 1074.68l473.43-106.86M170.46 1074.67l-3.43.78" stroke="#333" fill="none"/><path d="M644.73 968.14l-.75.17-.22-.96.26-.06z" stroke="#333" stroke-width=".05" fill="#333"/><path d="M171.46 1079.72L619 1077.9M171.47 1079.72h-3.5" stroke="#333" fill="none"/><path d="M619.5 1077.9v.5h-.5v-1h.52z" stroke="#333" stroke-width=".05" fill="#333"/><path d="M170.45 1083.62L619 1179.8M170.46 1083.62l-3.44-.74" stroke="#333" fill="none"/><path d="M619.52 1179.38l-.02.5v.53l-.6-.13.2-.97z" stroke="#333" stroke-width=".05" fill="#333"/><path d="M170.45 1087.22l462.2 194.47M170.46 1087.23l-3.24-1.36" stroke="#333" fill="none"/><path d="M633.13 1281.35l-.02.53.02.55-.68-.28.4-.92z" stroke="#333" stroke-width=".05" fill="#333"/><path d="M170.72 1090.05l496.64 362.15M170.73 1090.06l-2.84-2.07" stroke="#333" fill="none"/><path d="M667.78 1451.9l-.02.6v.56l.02.07-.73-.53.6-.8z" stroke="#333" stroke-width=".05" fill="#333"/><path d="M147.66 470.18l139.8 245.45c2.4-1.37 5.44-.53 6.8 1.87 1.37 2.4.53 5.45-1.87 6.82l97.66 171.48c2.4-1.36 5.45-.53 6.82 1.87 1.37 2.4.53 5.46-1.87 6.82l26.1 45.82c2.4-1.37 5.46-.53 6.83 1.87 1.36 2.4.53 5.44-1.87 6.8l26.78 47.04c2.4-1.37 5.45-.53 6.82 1.87 1.36 2.4.53 5.46-1.87 6.83l33.78 59.33c2.4-1.36 5.45-.53 6.82 1.87 1.37 2.4.53 5.46-1.87 6.82l43.44 76.28c2.4-1.37 5.45-.53 6.82 1.87 1.36 2.4.52 5.45-1.88 6.82l55.24 97c2.4-1.37 5.46-.53 6.82 1.87 1.37 2.4.53 5.44-1.87 6.8l87.08 152.9M147.67 470.2l-1.74-3.06" stroke="#333" fill="none"/><path d="M692.9 1426.55l-.94.37-.22-.4.87-.48z" stroke="#333" stroke-width=".05" fill="#333"/><path d="M1266.77 762.35L791 832.43M1266.76 762.35l3.47-.5" stroke="#333" fill="none"/><path d="M791.08 832.92l-.6.1.02-.52v-.5l.43-.07z" stroke="#333" stroke-width=".05" fill="#333"/><path d="M1266.8 766.7L770.97 955.02M1266.8 766.7l3.27-1.25" stroke="#333" fill="none"/><path d="M771.16 955.48l-.68.26.02-.54v-.53l.3-.12z" stroke="#333" stroke-width=".05" fill="#333"/><path d="M1266.84 771.57l-515.9 306.07M1266.82 771.58l3.03-1.8" stroke="#333" fill="none"/><path d="M751.2 1078.07l-.72.42.02-.6V1077.32l.2-.1z" stroke="#333" stroke-width=".05" fill="#333"/><path d="M1265.86 776.78l-530.9 381.24M1265.85 776.78l2.85-2.05" stroke="#333" fill="none"/><path d="M735.27 1158.42l-.22.15-.98-.53.6-.44z" stroke="#333" stroke-width=".05" fill="#333"/><path d="M1275.87 808.85L836.4 1215.07c-1.88-2.03-5.04-2.15-7.07-.28-2.03 1.87-2.15 5.03-.28 7.06l-64.57 59.7M1275.86 808.86l2.58-2.4" stroke="#333" fill="none"/><path d="M764.83 1281.9l-.75.7.03-.7V1281.22l.05-.06z" stroke="#333" stroke-width=".05" fill="#333"/><path d="M1288.44 828.96l-348.1 415.8c-2.12-1.8-5.27-1.5-7.05.6-1.78 2.13-1.5 5.28.62 7.05l-149.68 178.8M1288.43 828.97l2.26-2.7" stroke="#333" fill="none"/><path d="M784.63 1431.5l-.3.34-.83-.54.37-.44z" stroke="#333" stroke-width=".05" fill="#333"/><path d="M976.23 1260.1l-4.38.8m-4.38.78l-8.76 1.6m-4.37.8l-8.76 1.58m-4.38.8l-8.77 1.6m-4.38.78l-4.4.8-1.16-2.42-2.2-1.44-2.45-.17-2.42 1.2-1.44 2.18-.17 2.45-4.85.88m-4.85.9l-9.7 1.75m-4.83.88l-9.7 1.76m-4.84.87l-9.7 1.76m-4.84.88l-9.7 1.77m-4.83.88l-9.7 1.76m-4.85.9l-9.7 1.76m-4.84.88l-9.68 1.76m-4.84.88l-9.7 1.76m-4.84.88l-9.7 1.76m-4.84.88l-4.84.88" stroke="#333" fill="none"/><path d="M976.72 1260l.02.5-.43.08-.17-.98.6-.1z" stroke="#333" stroke-width=".05" fill="#333"/><path d="M753.93 1300.48l13.2-7.1 1.66 9.1z" stroke="#333" fill="#333"/><g><use xlink:href="#D" transform="matrix(1,0,0,1,848.3251569392777,1281.4991704300105) translate(0 14.222222222222223)"/></g><defs><path fill="#333" d="M178-136c88 48 22 151-73 140C49-3 12-15 4-64l51-9c1 50 111 53 115 3-16-63-132-20-133-112 0-93 190-91 199-10l-50 12c-4-41-93-50-97-4 7 38 59 32 89 48" id="E"/><path fill="#333" d="M100 10C77 47 50 87-15 72l7-35c37 9 51-18 65-41L20-190h51L89-44l73-146h53" id="F"/><path fill="#333" d="M144-137c-1-29-70-35-71-2 16 41 103 10 103 80C176 9 79 16 32-9 18-17 9-31 4-48l44-6c3 32 80 36 82 1-15-42-103-11-103-82 0-77 157-79 161-8" id="G"/><path fill="#333" d="M72-63c-8 23 5 39 32 30L98-1C54 14 12-6 23-64l18-93H15l7-33h28l24-45h31l-8 45h35l-6 33H90" id="H"/><path fill="#333" d="M114-194c63-2 87 48 72 110H63c-3 28 1 55 31 54 21-1 32-13 37-29l44 13C160-14 137 4 91 4 41 4 11-22 11-73c0-71 33-119 103-121zm30 77c14-47-50-61-67-22-3 6-6 13-8 22h75" id="I"/><path fill="#333" d="M255-194c90 0 29 129 24 194h-49l25-136c-7-39-53-14-60 9-12 38-18 85-28 127h-49l25-136c2-29-39-23-50-7C69-108 68-47 56 0H6l36-190h48c-1 10-6 24-4 32 12-20 27-36 57-36s46 15 50 41c14-21 29-41 62-41" id="J"/><g id="a"><use transform="matrix(0.06172839506172839,0,0,0.06172839506172839,0,0)" xlink:href="#E"/><use transform="matrix(0.06172839506172839,0,0,0.06172839506172839,14.814814814814813,0)" xlink:href="#F"/><use transform="matrix(0.06172839506172839,0,0,0.06172839506172839,27.160493827160494,0)" xlink:href="#G"/><use transform="matrix(0.06172839506172839,0,0,0.06172839506172839,39.50617283950617,0)" xlink:href="#H"/><use transform="matrix(0.06172839506172839,0,0,0.06172839506172839,46.85185185185185,0)" xlink:href="#I"/><use transform="matrix(0.06172839506172839,0,0,0.06172839506172839,59.197530864197525,0)" xlink:href="#J"/></g><path fill="#333" d="M23-100v-36l175-74v27L47-118l151 64v27" id="K"/><path fill="#333" d="M50-231l6-30h32l-6 30H50zM6 0l37-190h31L37 0H6" id="L"/><path fill="#333" d="M67-158c22-48 132-52 116 29L158 0h-32l25-140c3-38-53-32-70-12C52-117 51-52 38 0H6l36-190h30" id="M"/><path fill="#333" d="M44-68c0 29 11 47 38 47 30 0 42-19 51-41l28 9C148-21 126 4 82 4 31 4 10-29 12-85c3-77 74-140 146-93 12 8 15 23 18 40l-31 5c-1-22-13-36-36-36-52 0-65 49-65 101" id="N"/><path fill="#333" d="M6 0l50-261h32L37 0H6" id="O"/><path fill="#333" d="M67 3c-93-2-31-127-26-193h32L48-50c-3 39 53 32 70 12 30-34 30-101 43-152h32L157 0h-30c1-10 6-24 4-33-14 20-29 37-64 36" id="P"/><path fill="#333" d="M133-28C103 26-5 8 13-77c13-62 24-115 90-117 29-1 46 15 56 35l19-102h32L160 0h-30zM45-64c-2 27 10 43 35 43 54-1 69-50 69-103 0-29-15-46-42-46-53-1-58 58-62 106" id="Q"/><path fill="#333" d="M111-194c62-3 86 47 72 106H45c-7 38 6 69 45 68 27-1 43-14 53-32l24 11C152-15 129 4 87 4 38 3 12-23 12-71c0-70 32-119 99-123zm44 81c14-66-71-72-95-28-4 8-8 17-11 28h106" id="R"/><path fill="#333" d="M55-144c13 50 104 24 104 88C159 21 15 23 1-39l26-10c6 40 102 42 102-4-13-50-104-23-104-87 0-71 143-71 148-8l-29 4c-5-35-85-37-89 0" id="S"/><path fill="#333" d="M23-27v-27l151-64-151-65v-27l175 74v36" id="T"/><g id="b"><use transform="matrix(0.04938271604938272,0,0,0.04938271604938272,0,0)" xlink:href="#K"/><use transform="matrix(0.04938271604938272,0,0,0.04938271604938272,10.370370370370372,0)" xlink:href="#K"/><use transform="matrix(0.04938271604938272,0,0,0.04938271604938272,20.740740740740744,0)" xlink:href="#L"/><use transform="matrix(0.04938271604938272,0,0,0.04938271604938272,24.641975308641978,0)" xlink:href="#M"/><use transform="matrix(0.04938271604938272,0,0,0.04938271604938272,34.51851851851852,0)" xlink:href="#N"/><use transform="matrix(0.04938271604938272,0,0,0.04938271604938272,43.407407407407405,0)" xlink:href="#O"/><use transform="matrix(0.04938271604938272,0,0,0.04938271604938272,47.30864197530864,0)" xlink:href="#P"/><use transform="matrix(0.04938271604938272,0,0,0.04938271604938272,57.185185185185176,0)" xlink:href="#Q"/><use transform="matrix(0.04938271604938272,0,0,0.04938271604938272,67.06172839506172,0)" xlink:href="#R"/><use transform="matrix(0.04938271604938272,0,0,0.04938271604938272,76.93827160493827,0)" xlink:href="#S"/><use transform="matrix(0.04938271604938272,0,0,0.04938271604938272,85.82716049382715,0)" xlink:href="#T"/><use transform="matrix(0.04938271604938272,0,0,0.04938271604938272,96.19753086419752,0)" xlink:href="#T"/></g><path fill="#333" d="M205 0l-28-72H64L36 0H1l101-248h38L239 0h-34zm-38-99l-47-123c-12 45-31 82-46 123h93" id="U"/><path fill="#333" d="M85-194c31 0 48 13 60 33l-1-100h32l1 261h-30c-2-10 0-23-3-31C134-8 116 4 85 4 32 4 16-35 15-94c0-66 23-100 70-100zm9 24c-40 0-46 34-46 75 0 40 6 74 45 74 42 0 51-32 51-76 0-42-9-74-50-73" id="V"/><path fill="#333" d="M210-169c-67 3-38 105-44 169h-31v-121c0-29-5-50-35-48C34-165 62-65 56 0H25l-1-190h30c1 10-1 24 2 32 10-44 99-50 107 0 11-21 27-35 58-36 85-2 47 119 55 194h-31v-121c0-29-5-49-35-48" id="W"/><path fill="#333" d="M24-231v-30h32v30H24zM24 0v-190h32V0H24" id="X"/><path fill="#333" d="M117-194c89-4 53 116 60 194h-32v-121c0-31-8-49-39-48C34-167 62-67 57 0H25l-1-190h30c1 10-1 24 2 32 11-22 29-35 61-36" id="Y"/><g id="c"><use transform="matrix(0.05,0,0,0.05,0,0)" xlink:href="#U"/><use transform="matrix(0.05,0,0,0.05,12,0)" xlink:href="#V"/><use transform="matrix(0.05,0,0,0.05,22,0)" xlink:href="#W"/><use transform="matrix(0.05,0,0,0.05,36.95,0)" xlink:href="#X"/><use transform="matrix(0.05,0,0,0.05,40.900000000000006,0)" xlink:href="#Y"/></g><path fill="#333" d="M127-220V0H93v-220H8v-28h204v28h-85" id="Z"/><path fill="#333" d="M100-194c63 0 86 42 84 106H49c0 40 14 67 53 68 26 1 43-12 49-29l28 8c-11 28-37 45-77 45C44 4 14-33 15-96c1-61 26-98 85-98zm52 81c6-60-76-77-97-28-3 7-6 17-6 28h103" id="aa"/><path fill="#333" d="M141-36C126-15 110 5 73 4 37 3 15-17 15-53c-1-64 63-63 125-63 3-35-9-54-41-54-24 1-41 7-42 31l-33-3c5-37 33-52 76-52 45 0 72 20 72 64v82c-1 20 7 32 28 27v20c-31 9-61-2-59-35zM48-53c0 20 12 33 32 33 41-3 63-29 60-74-43 2-92-5-92 41" id="ab"/><path fill="#333" d="M96-169c-40 0-48 33-48 73s9 75 48 75c24 0 41-14 43-38l32 2c-6 37-31 61-74 61-59 0-76-41-82-99-10-93 101-131 147-64 4 7 5 14 7 22l-32 3c-4-21-16-35-41-35" id="ac"/><path fill="#333" d="M106-169C34-169 62-67 57 0H25v-261h32l-1 103c12-21 28-36 61-36 89 0 53 116 60 194h-32v-121c2-32-8-49-39-48" id="ad"/><path fill="#333" d="M114-163C36-179 61-72 57 0H25l-1-190h30c1 12-1 29 2 39 6-27 23-49 58-41v29" id="ae"/><g id="d"><use transform="matrix(0.05,0,0,0.05,0,0)" xlink:href="#Z"/><use transform="matrix(0.05,0,0,0.05,8.950000000000001,0)" xlink:href="#aa"/><use transform="matrix(0.05,0,0,0.05,18.950000000000003,0)" xlink:href="#ab"/><use transform="matrix(0.05,0,0,0.05,28.950000000000003,0)" xlink:href="#ac"/><use transform="matrix(0.05,0,0,0.05,37.95,0)" xlink:href="#ad"/><use transform="matrix(0.05,0,0,0.05,47.95,0)" xlink:href="#aa"/><use transform="matrix(0.05,0,0,0.05,57.95,0)" xlink:href="#ae"/></g><path fill="#333" d="M185-189c-5-48-123-54-124 2 14 75 158 14 163 119 3 78-121 87-175 55-17-10-28-26-33-46l33-7c5 56 141 63 141-1 0-78-155-14-162-118-5-82 145-84 179-34 5 7 8 16 11 25" id="af"/><path fill="#333" d="M59-47c-2 24 18 29 38 22v24C64 9 27 4 27-40v-127H5v-23h24l9-43h21v43h35v23H59v120" id="ag"/><path fill="#333" d="M84 4C-5 8 30-112 23-190h32v120c0 31 7 50 39 49 72-2 45-101 50-169h31l1 190h-30c-1-10 1-25-2-33-11 22-28 36-60 37" id="ah"/><g id="e"><use transform="matrix(0.05,0,0,0.05,0,0)" xlink:href="#af"/><use transform="matrix(0.05,0,0,0.05,12,0)" xlink:href="#ag"/><use transform="matrix(0.05,0,0,0.05,17,0)" xlink:href="#ah"/><use transform="matrix(0.05,0,0,0.05,27,0)" xlink:href="#V"/><use transform="matrix(0.05,0,0,0.05,37,0)" xlink:href="#aa"/><use transform="matrix(0.05,0,0,0.05,47,0)" xlink:href="#Y"/><use transform="matrix(0.05,0,0,0.05,57,0)" xlink:href="#ag"/></g><path d="M30 0v-248h33v221h125V0H30" id="ai"/><path d="M100-194c62-1 85 37 85 99 1 63-27 99-86 99S16-35 15-95c0-66 28-99 85-99zM99-20c44 1 53-31 53-75 0-43-8-75-51-75s-53 32-53 75 10 74 51 75" id="aj"/><path d="M177-190C167-65 218 103 67 71c-23-6-38-20-44-43l32-5c15 47 100 32 89-28v-30C133-14 115 1 83 1 29 1 15-40 15-95c0-56 16-97 71-98 29-1 48 16 59 35 1-10 0-23 2-32h30zM94-22c36 0 50-32 50-73 0-42-14-75-50-75-39 0-46 34-46 75s6 73 46 73" id="ak"/><path d="M24-231v-30h32v30H24zM24 0v-190h32V0H24" id="al"/><path d="M117-194c89-4 53 116 60 194h-32v-121c0-31-8-49-39-48C34-167 62-67 57 0H25l-1-190h30c1 10-1 24 2 32 11-22 29-35 61-36" id="am"/><g id="f"><use transform="matrix(0.05,0,0,0.05,0,0)" xlink:href="#ai"/><use transform="matrix(0.05,0,0,0.05,10,0)" xlink:href="#aj"/><use transform="matrix(0.05,0,0,0.05,20,0)" xlink:href="#ak"/><use transform="matrix(0.05,0,0,0.05,30,0)" xlink:href="#al"/><use transform="matrix(0.05,0,0,0.05,33.95,0)" xlink:href="#am"/></g><path d="M137 0h-34L2-248h35l83 218 83-218h36" id="an"/><path d="M141-36C126-15 110 5 73 4 37 3 15-17 15-53c-1-64 63-63 125-63 3-35-9-54-41-54-24 1-41 7-42 31l-33-3c5-37 33-52 76-52 45 0 72 20 72 64v82c-1 20 7 32 28 27v20c-31 9-61-2-59-35zM48-53c0 20 12 33 32 33 41-3 63-29 60-74-43 2-92-5-92 41" id="ao"/><path d="M24 0v-261h32V0H24" id="ap"/><path d="M85-194c31 0 48 13 60 33l-1-100h32l1 261h-30c-2-10 0-23-3-31C134-8 116 4 85 4 32 4 16-35 15-94c0-66 23-100 70-100zm9 24c-40 0-46 34-46 75 0 40 6 74 45 74 42 0 51-32 51-76 0-42-9-74-50-73" id="aq"/><path d="M59-47c-2 24 18 29 38 22v24C64 9 27 4 27-40v-127H5v-23h24l9-43h21v43h35v23H59v120" id="ar"/><path d="M100-194c63 0 86 42 84 106H49c0 40 14 67 53 68 26 1 43-12 49-29l28 8c-11 28-37 45-77 45C44 4 14-33 15-96c1-61 26-98 85-98zm52 81c6-60-76-77-97-28-3 7-6 17-6 28h103" id="as"/><g id="g"><use transform="matrix(0.05,0,0,0.05,0,0)" xlink:href="#an"/><use transform="matrix(0.05,0,0,0.05,10.65,0)" xlink:href="#ao"/><use transform="matrix(0.05,0,0,0.05,20.65,0)" xlink:href="#ap"/><use transform="matrix(0.05,0,0,0.05,24.599999999999998,0)" xlink:href="#al"/><use transform="matrix(0.05,0,0,0.05,28.549999999999997,0)" xlink:href="#aq"/><use transform="matrix(0.05,0,0,0.05,38.55,0)" xlink:href="#ao"/><use transform="matrix(0.05,0,0,0.05,48.55,0)" xlink:href="#ar"/><use transform="matrix(0.05,0,0,0.05,53.54999999999999,0)" xlink:href="#as"/></g><path d="M212-179c-10-28-35-45-73-45-59 0-87 40-87 99 0 60 29 101 89 101 43 0 62-24 78-52l27 14C228-24 195 4 139 4 59 4 22-46 18-125c-6-104 99-153 187-111 19 9 31 26 39 46" id="at"/><path d="M114-163C36-179 61-72 57 0H25l-1-190h30c1 12-1 29 2 39 6-27 23-49 58-41v29" id="au"/><g id="h"><use transform="matrix(0.05,0,0,0.05,0,0)" xlink:href="#at"/><use transform="matrix(0.05,0,0,0.05,12.950000000000001,0)" xlink:href="#au"/><use transform="matrix(0.05,0,0,0.05,18.900000000000002,0)" xlink:href="#as"/><use transform="matrix(0.05,0,0,0.05,28.900000000000002,0)" xlink:href="#ao"/><use transform="matrix(0.05,0,0,0.05,38.900000000000006,0)" xlink:href="#ar"/><use transform="matrix(0.05,0,0,0.05,43.900000000000006,0)" xlink:href="#as"/></g><path d="M185-189c-5-48-123-54-124 2 14 75 158 14 163 119 3 78-121 87-175 55-17-10-28-26-33-46l33-7c5 56 141 63 141-1 0-78-155-14-162-118-5-82 145-84 179-34 5 7 8 16 11 25" id="av"/><path d="M135-143c-3-34-86-38-87 0 15 53 115 12 119 90S17 21 10-45l28-5c4 36 97 45 98 0-10-56-113-15-118-90-4-57 82-63 122-42 12 7 21 19 24 35" id="aw"/><g id="i"><use transform="matrix(0.05,0,0,0.05,0,0)" xlink:href="#av"/><use transform="matrix(0.05,0,0,0.05,12,0)" xlink:href="#as"/><use transform="matrix(0.05,0,0,0.05,22,0)" xlink:href="#aw"/><use transform="matrix(0.05,0,0,0.05,31,0)" xlink:href="#aw"/><use transform="matrix(0.05,0,0,0.05,40,0)" xlink:href="#al"/><use transform="matrix(0.05,0,0,0.05,43.95,0)" xlink:href="#aj"/><use transform="matrix(0.05,0,0,0.05,53.95,0)" xlink:href="#am"/></g><path d="M233-177c-1 41-23 64-60 70L243 0h-38l-65-103H63V0H30v-248c88 3 205-21 203 71zM63-129c60-2 137 13 137-47 0-61-80-42-137-45v92" id="ax"/><g id="j"><use transform="matrix(0.05,0,0,0.05,0,0)" xlink:href="#ax"/><use transform="matrix(0.05,0,0,0.05,12.950000000000001,0)" xlink:href="#as"/><use transform="matrix(0.05,0,0,0.05,22.950000000000003,0)" xlink:href="#ak"/><use transform="matrix(0.05,0,0,0.05,32.95,0)" xlink:href="#al"/><use transform="matrix(0.05,0,0,0.05,36.900000000000006,0)" xlink:href="#aw"/><use transform="matrix(0.05,0,0,0.05,45.900000000000006,0)" xlink:href="#ar"/><use transform="matrix(0.05,0,0,0.05,50.900000000000006,0)" xlink:href="#as"/><use transform="matrix(0.05,0,0,0.05,60.900000000000006,0)" xlink:href="#au"/></g><path d="M190 0L58-211 59 0H30v-248h39L202-35l-2-213h31V0h-41" id="ay"/><path d="M206 0h-36l-40-164L89 0H53L-1-190h32L70-26l43-164h34l41 164 42-164h31" id="az"/><g id="k"><use transform="matrix(0.05,0,0,0.05,0,0)" xlink:href="#ay"/><use transform="matrix(0.05,0,0,0.05,12.950000000000001,0)" xlink:href="#as"/><use transform="matrix(0.05,0,0,0.05,22.950000000000003,0)" xlink:href="#az"/></g><path d="M232-93c-1 65-40 97-104 97C67 4 28-28 28-90v-158h33c8 89-33 224 67 224 102 0 64-133 71-224h33v155" id="aA"/><g id="l"><use transform="matrix(0.05,0,0,0.05,0,0)" xlink:href="#aA"/><use transform="matrix(0.05,0,0,0.05,12.950000000000001,0)" xlink:href="#aw"/><use transform="matrix(0.05,0,0,0.05,21.950000000000003,0)" xlink:href="#as"/><use transform="matrix(0.05,0,0,0.05,31.950000000000003,0)" xlink:href="#au"/></g><path d="M240 0l2-218c-23 76-54 145-80 218h-23L58-218 59 0H30v-248h44l77 211c21-75 51-140 76-211h43V0h-30" id="aB"/><g id="m"><use transform="matrix(0.05,0,0,0.05,0,0)" xlink:href="#aB"/><use transform="matrix(0.05,0,0,0.05,14.950000000000001,0)" xlink:href="#ao"/><use transform="matrix(0.05,0,0,0.05,24.950000000000003,0)" xlink:href="#am"/><use transform="matrix(0.05,0,0,0.05,34.95,0)" xlink:href="#ao"/><use transform="matrix(0.05,0,0,0.05,44.95,0)" xlink:href="#ak"/><use transform="matrix(0.05,0,0,0.05,54.95,0)" xlink:href="#as"/></g><path d="M84 4C-5 8 30-112 23-190h32v120c0 31 7 50 39 49 72-2 45-101 50-169h31l1 190h-30c-1-10 1-25-2-33-11 22-28 36-60 37" id="aC"/><g id="n"><use transform="matrix(0.05,0,0,0.05,0,0)" xlink:href="#av"/><use transform="matrix(0.05,0,0,0.05,12,0)" xlink:href="#ar"/><use transform="matrix(0.05,0,0,0.05,17,0)" xlink:href="#aC"/><use transform="matrix(0.05,0,0,0.05,27,0)" xlink:href="#aq"/><use transform="matrix(0.05,0,0,0.05,37,0)" xlink:href="#as"/><use transform="matrix(0.05,0,0,0.05,47,0)" xlink:href="#am"/><use transform="matrix(0.05,0,0,0.05,57,0)" xlink:href="#ar"/><use transform="matrix(0.05,0,0,0.05,62,0)" xlink:href="#aw"/></g><g id="o"><use transform="matrix(0.05,0,0,0.05,0,0)" xlink:href="#ao"/><use transform="matrix(0.05,0,0,0.05,10,0)" xlink:href="#am"/><use transform="matrix(0.05,0,0,0.05,20,0)" xlink:href="#aq"/></g><path d="M127-220V0H93v-220H8v-28h204v28h-85" id="aD"/><path d="M96-169c-40 0-48 33-48 73s9 75 48 75c24 0 41-14 43-38l32 2c-6 37-31 61-74 61-59 0-76-41-82-99-10-93 101-131 147-64 4 7 5 14 7 22l-32 3c-4-21-16-35-41-35" id="aE"/><path d="M106-169C34-169 62-67 57 0H25v-261h32l-1 103c12-21 28-36 61-36 89 0 53 116 60 194h-32v-121c2-32-8-49-39-48" id="aF"/><g id="p"><use transform="matrix(0.05,0,0,0.05,0,0)" xlink:href="#aD"/><use transform="matrix(0.05,0,0,0.05,8.950000000000001,0)" xlink:href="#as"/><use transform="matrix(0.05,0,0,0.05,18.950000000000003,0)" xlink:href="#ao"/><use transform="matrix(0.05,0,0,0.05,28.950000000000003,0)" xlink:href="#aE"/><use transform="matrix(0.05,0,0,0.05,37.95,0)" xlink:href="#aF"/><use transform="matrix(0.05,0,0,0.05,47.95,0)" xlink:href="#as"/><use transform="matrix(0.05,0,0,0.05,57.95,0)" xlink:href="#au"/><use transform="matrix(0.05,0,0,0.05,63.900000000000006,0)" xlink:href="#aw"/></g><path d="M205 0l-28-72H64L36 0H1l101-248h38L239 0h-34zm-38-99l-47-123c-12 45-31 82-46 123h93" id="aG"/><g id="q"><use transform="matrix(0.05,0,0,0.05,0,0)" xlink:href="#aG"/><use transform="matrix(0.05,0,0,0.05,12,0)" xlink:href="#ar"/><use transform="matrix(0.05,0,0,0.05,17,0)" xlink:href="#ar"/><use transform="matrix(0.05,0,0,0.05,22,0)" xlink:href="#as"/><use transform="matrix(0.05,0,0,0.05,32,0)" xlink:href="#am"/><use transform="matrix(0.05,0,0,0.05,42,0)" xlink:href="#aq"/><use transform="matrix(0.05,0,0,0.05,52,0)" xlink:href="#ao"/><use transform="matrix(0.05,0,0,0.05,62,0)" xlink:href="#am"/><use transform="matrix(0.05,0,0,0.05,72,0)" xlink:href="#aE"/><use transform="matrix(0.05,0,0,0.05,81,0)" xlink:href="#as"/></g><path d="M210-169c-67 3-38 105-44 169h-31v-121c0-29-5-50-35-48C34-165 62-65 56 0H25l-1-190h30c1 10-1 24 2 32 10-44 99-50 107 0 11-21 27-35 58-36 85-2 47 119 55 194h-31v-121c0-29-5-49-35-48" id="aH"/><g id="r"><use transform="matrix(0.05,0,0,0.05,0,0)" xlink:href="#aG"/><use transform="matrix(0.05,0,0,0.05,12,0)" xlink:href="#am"/><use transform="matrix(0.05,0,0,0.05,22,0)" xlink:href="#am"/><use transform="matrix(0.05,0,0,0.05,32,0)" xlink:href="#aj"/><use transform="matrix(0.05,0,0,0.05,42,0)" xlink:href="#aC"/><use transform="matrix(0.05,0,0,0.05,52,0)" xlink:href="#am"/><use transform="matrix(0.05,0,0,0.05,62,0)" xlink:href="#aE"/><use transform="matrix(0.05,0,0,0.05,71,0)" xlink:href="#as"/><use transform="matrix(0.05,0,0,0.05,81,0)" xlink:href="#aH"/><use transform="matrix(0.05,0,0,0.05,95.95,0)" xlink:href="#as"/><use transform="matrix(0.05,0,0,0.05,105.95,0)" xlink:href="#am"/><use transform="matrix(0.05,0,0,0.05,115.95,0)" xlink:href="#ar"/><use transform="matrix(0.05,0,0,0.05,120.95,0)" xlink:href="#aw"/></g><path d="M115-194c53 0 69 39 70 98 0 66-23 100-70 100C84 3 66-7 56-30L54 0H23l1-261h32v101c10-23 28-34 59-34zm-8 174c40 0 45-34 45-75 0-40-5-75-45-74-42 0-51 32-51 76 0 43 10 73 51 73" id="aI"/><g id="s"><use transform="matrix(0.05,0,0,0.05,0,0)" xlink:href="#aD"/><use transform="matrix(0.05,0,0,0.05,10.3,0)" xlink:href="#al"/><use transform="matrix(0.05,0,0,0.05,14.25,0)" xlink:href="#aH"/><use transform="matrix(0.05,0,0,0.05,29.200000000000003,0)" xlink:href="#as"/><use transform="matrix(0.05,0,0,0.05,39.2,0)" xlink:href="#ar"/><use transform="matrix(0.05,0,0,0.05,44.2,0)" xlink:href="#ao"/><use transform="matrix(0.05,0,0,0.05,54.2,0)" xlink:href="#aI"/><use transform="matrix(0.05,0,0,0.05,64.2,0)" xlink:href="#ap"/><use transform="matrix(0.05,0,0,0.05,68.15,0)" xlink:href="#as"/></g><path d="M30 0v-248h187v28H63v79h144v27H63v87h162V0H30" id="aJ"/><path d="M141 0L90-78 38 0H4l68-98-65-92h35l48 74 47-74h35l-64 92 68 98h-35" id="aK"/><g id="t"><use transform="matrix(0.05,0,0,0.05,0,0)" xlink:href="#aJ"/><use transform="matrix(0.05,0,0,0.05,12,0)" xlink:href="#aK"/><use transform="matrix(0.05,0,0,0.05,21,0)" xlink:href="#ao"/><use transform="matrix(0.05,0,0,0.05,31,0)" xlink:href="#aH"/></g><path d="M115-194c55 1 70 41 70 98S169 2 115 4C84 4 66-9 55-30l1 105H24l-1-265h31l2 30c10-21 28-34 59-34zm-8 174c40 0 45-34 45-75s-6-73-45-74c-42 0-51 32-51 76 0 43 10 73 51 73" id="aL"/><g id="u"><use transform="matrix(0.05,0,0,0.05,0,0)" xlink:href="#ax"/><use transform="matrix(0.05,0,0,0.05,12.950000000000001,0)" xlink:href="#as"/><use transform="matrix(0.05,0,0,0.05,22.950000000000003,0)" xlink:href="#aL"/><use transform="matrix(0.05,0,0,0.05,32.95,0)" xlink:href="#aj"/><use transform="matrix(0.05,0,0,0.05,42.95,0)" xlink:href="#au"/><use transform="matrix(0.05,0,0,0.05,48.900000000000006,0)" xlink:href="#ar"/><use transform="matrix(0.05,0,0,0.05,53.900000000000006,0)" xlink:href="#aw"/></g><g id="v"><use transform="matrix(0.05,0,0,0.05,0,0)" xlink:href="#aG"/><use transform="matrix(0.05,0,0,0.05,12,0)" xlink:href="#aw"/><use transform="matrix(0.05,0,0,0.05,21,0)" xlink:href="#aw"/><use transform="matrix(0.05,0,0,0.05,30,0)" xlink:href="#al"/><use transform="matrix(0.05,0,0,0.05,33.95,0)" xlink:href="#ak"/><use transform="matrix(0.05,0,0,0.05,43.95,0)" xlink:href="#am"/><use transform="matrix(0.05,0,0,0.05,53.95,0)" xlink:href="#aH"/><use transform="matrix(0.05,0,0,0.05,68.9,0)" xlink:href="#as"/><use transform="matrix(0.05,0,0,0.05,78.9,0)" xlink:href="#am"/><use transform="matrix(0.05,0,0,0.05,88.9,0)" xlink:href="#ar"/><use transform="matrix(0.05,0,0,0.05,93.9,0)" xlink:href="#aw"/></g><g id="w"><use transform="matrix(0.05,0,0,0.05,0,0)" xlink:href="#ai"/><use transform="matrix(0.05,0,0,0.05,10,0)" xlink:href="#as"/><use transform="matrix(0.05,0,0,0.05,20,0)" xlink:href="#aE"/><use transform="matrix(0.05,0,0,0.05,29,0)" xlink:href="#ar"/><use transform="matrix(0.05,0,0,0.05,34,0)" xlink:href="#aC"/><use transform="matrix(0.05,0,0,0.05,44,0)" xlink:href="#au"/><use transform="matrix(0.05,0,0,0.05,49.95,0)" xlink:href="#as"/></g><g id="x"><use transform="matrix(0.05,0,0,0.05,0,0)" xlink:href="#ay"/><use transform="matrix(0.05,0,0,0.05,12.950000000000001,0)" xlink:href="#aj"/><use transform="matrix(0.05,0,0,0.05,22.950000000000003,0)" xlink:href="#ar"/><use transform="matrix(0.05,0,0,0.05,27.950000000000003,0)" xlink:href="#as"/><use transform="matrix(0.05,0,0,0.05,37.95,0)" xlink:href="#aw"/></g><g id="y"><use transform="matrix(0.05,0,0,0.05,0,0)" xlink:href="#ai"/><use transform="matrix(0.05,0,0,0.05,10,0)" xlink:href="#aj"/><use transform="matrix(0.05,0,0,0.05,20,0)" xlink:href="#ak"/></g><path d="M140-251c81 0 123 46 123 126C263-46 219 4 140 4 59 4 17-45 17-125s42-126 123-126zm0 227c63 0 89-41 89-101s-29-99-89-99c-61 0-89 39-89 99S79-25 140-24" id="aM"/><g id="z"><use transform="matrix(0.05,0,0,0.05,0,0)" xlink:href="#aM"/><use transform="matrix(0.05,0,0,0.05,14,0)" xlink:href="#aC"/><use transform="matrix(0.05,0,0,0.05,24,0)" xlink:href="#ar"/></g><path d="M30-248c118-7 216 8 213 122C240-48 200 0 122 0H30v-248zM63-27c89 8 146-16 146-99s-60-101-146-95v194" id="aN"/><path d="M179-190L93 31C79 59 56 82 12 73V49c39 6 53-20 64-50L1-190h34L92-34l54-156h33" id="aO"/><g id="A"><use transform="matrix(0.05,0,0,0.05,0,0)" xlink:href="#aN"/><use transform="matrix(0.05,0,0,0.05,12.950000000000001,0)" xlink:href="#as"/><use transform="matrix(0.05,0,0,0.05,22.950000000000003,0)" xlink:href="#aw"/><use transform="matrix(0.05,0,0,0.05,31.950000000000003,0)" xlink:href="#ar"/><use transform="matrix(0.05,0,0,0.05,36.95,0)" xlink:href="#au"/><use transform="matrix(0.05,0,0,0.05,42.900000000000006,0)" xlink:href="#aj"/><use transform="matrix(0.05,0,0,0.05,52.900000000000006,0)" xlink:href="#aO"/></g><g id="B"><use transform="matrix(0.05,0,0,0.05,0,0)" xlink:href="#aA"/><use transform="matrix(0.05,0,0,0.05,12.950000000000001,0)" xlink:href="#aL"/><use transform="matrix(0.05,0,0,0.05,22.950000000000003,0)" xlink:href="#ap"/><use transform="matrix(0.05,0,0,0.05,26.900000000000002,0)" xlink:href="#aj"/><use transform="matrix(0.05,0,0,0.05,36.900000000000006,0)" xlink:href="#ao"/><use transform="matrix(0.05,0,0,0.05,46.900000000000006,0)" xlink:href="#aq"/></g><g id="C"><use transform="matrix(0.05,0,0,0.05,0,0)" xlink:href="#aN"/><use transform="matrix(0.05,0,0,0.05,12.950000000000001,0)" xlink:href="#aj"/><use transform="matrix(0.05,0,0,0.05,22.950000000000003,0)" xlink:href="#az"/><use transform="matrix(0.05,0,0,0.05,35.900000000000006,0)" xlink:href="#am"/><use transform="matrix(0.05,0,0,0.05,45.900000000000006,0)" xlink:href="#ap"/><use transform="matrix(0.05,0,0,0.05,49.85000000000001,0)" xlink:href="#aj"/><use transform="matrix(0.05,0,0,0.05,59.85,0)" xlink:href="#ao"/><use transform="matrix(0.05,0,0,0.05,69.85000000000001,0)" xlink:href="#aq"/><use transform="matrix(0.05,0,0,0.05,79.85000000000001,0)" xlink:href="#aw"/></g><path fill="#333" d="M124 0L87-78 21 0h-35l86-98-46-92h33l34 74 61-74h37l-83 92 50 98h-34" id="aP"/><path fill="#333" d="M51-54c-9 22 5 41 31 30L79-1C43 14 10-4 19-52l22-115H19l5-23h22l19-43h21l-9 43h35l-4 23H73" id="aQ"/><g id="D"><use transform="matrix(0.04938271604938272,0,0,0.04938271604938272,0,0)" xlink:href="#K"/><use transform="matrix(0.04938271604938272,0,0,0.04938271604938272,10.370370370370372,0)" xlink:href="#K"/><use transform="matrix(0.04938271604938272,0,0,0.04938271604938272,20.740740740740744,0)" xlink:href="#R"/><use transform="matrix(0.04938271604938272,0,0,0.04938271604938272,30.617283950617285,0)" xlink:href="#aP"/><use transform="matrix(0.04938271604938272,0,0,0.04938271604938272,39.50617283950618,0)" xlink:href="#aQ"/><use transform="matrix(0.04938271604938272,0,0,0.04938271604938272,44.44444444444445,0)" xlink:href="#R"/><use transform="matrix(0.04938271604938272,0,0,0.04938271604938272,54.320987654320994,0)" xlink:href="#M"/><use transform="matrix(0.04938271604938272,0,0,0.04938271604938272,64.19753086419755,0)" xlink:href="#Q"/><use transform="matrix(0.04938271604938272,0,0,0.04938271604938272,74.07407407407409,0)" xlink:href="#S"/><use transform="matrix(0.04938271604938272,0,0,0.04938271604938272,82.96296296296298,0)" xlink:href="#T"/><use transform="matrix(0.04938271604938272,0,0,0.04938271604938272,93.33333333333334,0)" xlink:href="#T"/></g></defs></g></svg>